<svg xmlns="http://www.w3.org/2000/svg" width="39.622" height="39.622" viewBox="0 0 39.622 39.622"><defs><style>.a{fill:#414a4c;}</style></defs><path class="a" d="M27.24,0H12.382A12.383,12.383,0,0,0,0,12.382V27.24A12.383,12.383,0,0,0,12.382,39.622H27.24A12.383,12.383,0,0,0,39.622,27.24V12.382A12.383,12.383,0,0,0,27.24,0Zm8.667,27.24a8.677,8.677,0,0,1-8.667,8.667H12.382A8.677,8.677,0,0,1,3.715,27.24V12.382a8.677,8.677,0,0,1,8.667-8.667H27.24a8.677,8.677,0,0,1,8.667,8.667Z"/><g transform="translate(9.906 9.906)"><path class="a" d="M137.906,128a9.906,9.906,0,1,0,9.906,9.906A9.906,9.906,0,0,0,137.906,128Zm0,16.1a6.191,6.191,0,1,1,6.191-6.191A6.2,6.2,0,0,1,137.906,144.1Z" transform="translate(-128 -128)"/></g><g transform="translate(29.14 7.843)"><circle class="a" cx="1.32" cy="1.32" r="1.32"/></g></svg>