<svg xmlns="http://www.w3.org/2000/svg" width="42.661" height="15" viewBox="0 0 42.661 15"><defs><style>.a{fill:#3b444b;}</style></defs><g transform="translate(0 -165.987)"><path class="a" d="M12.582,180.985a10.269,10.269,0,0,0,8.749-3.874c3.118,4.112,7.616,3.639,9.924,3.874a11.519,11.519,0,0,0,11.407-11.423v-2.325a1.25,1.25,0,0,0-2.5,0,3.744,3.744,0,0,1-3.749,3.749h-.75a3.84,3.84,0,0,1-2.35-.825L29.7,167.337a6.119,6.119,0,0,0-3.849-1.35,6.253,6.253,0,0,0-4.524,1.975,6.168,6.168,0,0,0-8.374-.625l-3.525,2.825a3.84,3.84,0,0,1-2.35.825h-.75A3.816,3.816,0,0,1,2.5,167.237a1.238,1.238,0,0,0-1.25-1.25A1.238,1.238,0,0,0,0,167.237v1.9c0,7.649,4.983,11.748,12.582,11.848Z"/></g></svg>