<svg xmlns="http://www.w3.org/2000/svg" width="493.326" height="173.46" viewBox="0 0 493.326 173.46"><defs><style>.a{fill:#f5f5f5;}</style></defs><g transform="translate(0 -165.987)"><path class="a" d="M145.493,339.422c51.741.868,82.96-21.391,101.171-44.8,36.051,47.556,88.07,42.083,114.755,44.8,72.265-.579,131.908-59.835,131.908-132.1V180.44a14.453,14.453,0,0,0-28.906,0A43.3,43.3,0,0,1,421.062,223.8H412.39a44.4,44.4,0,0,1-27.172-9.54L343.5,181.6a70.765,70.765,0,0,0-44.514-15.608c-25.726,0-42.491,13.008-52.32,22.835-9.829-10.116-26.016-22.835-52.32-22.835A70.763,70.763,0,0,0,149.83,181.6l-40.758,32.663A44.4,44.4,0,0,1,81.9,223.8H73.228c-23.993,0-44.322-19.366-44.322-43.359a14.311,14.311,0,0,0-14.453-14.453A14.311,14.311,0,0,0,0,180.44v21.968C0,290.86,57.62,338.267,145.493,339.422Z" transform="translate(0 0)"/></g></svg>