<svg xmlns="http://www.w3.org/2000/svg" width="49.008" height="39.819" viewBox="0 0 49.008 39.819"><defs><style>.a{fill:#414a4c;}</style></defs><g transform="translate(0 -48)"><g transform="translate(0 48)"><path class="a" d="M49.008,52.714A20.948,20.948,0,0,1,43.219,54.3a9.991,9.991,0,0,0,4.42-5.553,20.079,20.079,0,0,1-6.371,2.432,10.046,10.046,0,0,0-17.38,6.87,10.345,10.345,0,0,0,.233,2.291A28.438,28.438,0,0,1,3.412,49.832,10.05,10.05,0,0,0,6.5,63.26,9.922,9.922,0,0,1,1.96,62.022v.11A10.093,10.093,0,0,0,10.01,72a10.028,10.028,0,0,1-2.634.331,8.884,8.884,0,0,1-1.9-.172,10.143,10.143,0,0,0,9.388,7A20.188,20.188,0,0,1,2.4,83.448,18.819,18.819,0,0,1,0,83.31a28.285,28.285,0,0,0,15.413,4.509c18.488,0,28.6-15.315,28.6-28.59,0-.444-.015-.873-.037-1.3A20.043,20.043,0,0,0,49.008,52.714Z" transform="translate(0 -48)"/></g></g></svg>